<svg xmlns="http://www.w3.org/2000/svg" width="256" height="256" viewBox="0 0 256 256">
  <path fill="#FFFFFF" d="M 130.974 65.484 L 131.821 65.444 L 131.821 131.102 L 127.621 131.103 L 85.09 131.127 L 83.933 131.846 L 83.174 132.363 L 82.541 132.899 L 82.024 133.472 L 81.614 134.099 L 81.301 134.798 L 81.076 135.585 L 80.929 136.478 L 80.852 137.495 L 80.811 138.97 L 80.834 139.479 L 80.901 139.892 L 81.021 140.252 L 81.205 140.6 L 81.805 141.433 L 82.421 142.348 L 82.715 142.71 L 83.114 143.015 L 83.705 143.268 L 84.574 143.474 L 85.807 143.638 L 87.49 143.763 L 89.71 143.856 L 92.552 143.921 L 100.451 143.985 L 127.52 143.991 L 131.821 143.991 L 131.821 163.445 L 128.475 163.439 L 101.394 163.393 L 93.413 163.444 L 90.516 163.503 L 88.236 163.59 L 86.489 163.71 L 85.19 163.866 L 84.255 164.063 L 83.599 164.306 L 83.138 164.599 L 82.787 164.945 L 82.079 165.818 L 81.351 166.689 L 81.125 167.042 L 80.971 167.396 L 80.876 167.795 L 80.826 168.281 L 80.803 169.685 L 80.829 170.651 L 80.91 171.482 L 81.06 172.202 L 81.288 172.837 L 81.606 173.409 L 82.026 173.945 L 82.557 174.468 L 83.212 175.003 L 84.405 175.914 L 109.841 176.073 L 130.409 176.151 L 131.821 176.151 L 131.821 195.492 L 127.106 195.495 L 85.09 195.61 L 83.892 196.354 L 83.144 196.861 L 82.52 197.383 L 82.01 197.938 L 81.606 198.542 L 81.298 199.211 L 81.076 199.962 L 80.932 200.812 L 80.857 201.777 L 80.822 203.133 L 80.846 203.614 L 80.908 204.01 L 81.015 204.354 L 81.175 204.682 L 81.687 205.426 L 82.159 205.967 L 82.755 206.522 L 83.397 207.025 L 84.01 207.412 L 85.398 208.154 L 127.744 208.154 L 131.821 208.152 L 131.821 239.995 L 128.925 240 L 84.713 239.993 L 70.901 239.944 L 65.397 239.87 L 64.001 239.65 L 62.621 239.359 L 61.258 238.997 L 59.916 238.567 L 58.596 238.07 L 57.303 237.507 L 56.039 236.881 L 54.805 236.192 L 53.607 235.443 L 52.445 234.635 L 51.322 233.77 L 50.242 232.849 L 49.207 231.874 L 48.221 230.847 L 47.284 229.769 L 46.401 228.642 L 45.428 227.263 L 44.604 225.919 L 43.901 224.526 L 43.287 222.999 L 42.733 221.255 L 42.208 219.209 L 41.683 216.776 L 41.127 213.872 L 39.989 208.313 L 38.836 202.754 L 37.557 197.037 L 36.001 190.208 L 34.737 184.49 L 33.637 179.408 L 31.913 171.089 L 30.458 164.32 L 29.318 159.079 L 28.069 153.361 L 25.459 141.45 L 25.11 139.606 L 24.89 137.82 L 24.775 135.824 L 24.741 133.35 L 24.739 128.585 L 25.91 126.191 L 26.667 124.805 L 27.107 124.155 L 27.633 123.477 L 29.087 121.868 L 31.309 119.635 L 34.646 116.397 L 36.73 114.453 L 37.923 113.326 L 39.194 111.936 L 40.504 110.342 L 41.81 108.6 L 43.073 106.766 L 44.251 104.899 L 45.303 103.054 L 46.188 101.288 L 46.811 99.84 L 47.452 98.168 L 48.087 96.355 L 48.691 94.481 L 49.238 92.625 L 49.704 90.871 L 50.064 89.296 L 50.293 87.984 L 50.442 86.631 L 50.552 85.092 L 50.659 81.512 L 50.618 77.348 L 50.435 72.704 L 50.116 67.683 L 49.665 62.389 L 49.089 56.926 L 48.392 51.399 L 47.906 47.652 L 47.593 44.887 L 47.325 42.484 L 46.949 39.605 L 46.705 37.726 L 46.548 36.132 L 46.481 34.773 L 46.508 33.596 L 46.632 32.552 L 46.857 31.588 L 47.187 30.653 L 47.624 29.697 L 48.303 28.438 L 49.014 27.386 L 49.407 26.92 L 49.84 26.485 L 50.321 26.073 L 50.862 25.678 L 52.164 24.911 L 53.827 24.126 L 55.934 23.269 L 58.567 22.284 L 61.744 21.071 L 64.384 20.02 L 66.469 19.234 L 72.355 17.236 L 73.785 16.783 L 75.029 16.437 L 76.113 16.196 L 77.065 16.058 L 77.913 16.019 L 78.683 16.078 L 79.402 16.23 L 80.098 16.475 L 81.09 16.968 L 81.533 17.257 L 81.945 17.582 L 82.328 17.947 L 82.684 18.357 L 83.018 18.817 L 83.33 19.331 L 83.904 20.542 L 84.428 22.029 L 84.922 23.832 L 85.409 25.988 L 86.595 31.281 L 87.197 33.668 L 87.812 35.899 L 88.445 37.984 L 89.101 39.935 L 89.786 41.764 L 90.504 43.484 L 91.261 45.105 L 92.063 46.639 L 92.913 48.098 L 93.818 49.495 L 94.783 50.839 L 95.812 52.144 L 96.911 53.422 L 98.086 54.682 L 99.514 56.092 L 100.973 57.393 L 102.468 58.587 L 104.008 59.677 L 105.598 60.665 L 107.247 61.554 L 108.961 62.346 L 110.746 63.044 L 112.61 63.649 L 114.559 64.166 L 116.601 64.595 L 118.742 64.94 L 120.99 65.203 L 123.351 65.386 L 125.832 65.492 L 128.44 65.524 Z"/>
  <path fill="#FFFFFF" d="M 128.925 240 L 123.821 239.999 L 123.821 208.154 L 127.744 208.154 L 150.565 208.139 L 163.458 208.072 L 167.092 208.008 L 169.335 207.917 L 170.552 207.797 L 171.107 207.641 L 172.09 207.04 L 173.019 206.28 L 173.809 205.439 L 174.125 205.013 L 174.376 204.596 L 174.566 204.082 L 174.702 203.409 L 174.783 202.629 L 174.809 201.796 L 174.78 200.962 L 174.697 200.18 L 174.56 199.502 L 174.368 198.982 L 174.038 198.452 L 173.599 197.906 L 173.079 197.368 L 172.506 196.859 L 171.908 196.405 L 171.313 196.027 L 170.749 195.748 L 170.244 195.591 L 166.493 195.519 L 157.109 195.476 L 127.106 195.495 L 123.821 195.504 L 123.821 176.126 L 130.409 176.151 L 149.526 176.142 L 163.902 176.053 L 168.284 175.983 L 170.246 175.896 L 170.747 175.753 L 171.306 175.48 L 171.895 175.103 L 172.485 174.644 L 173.049 174.127 L 173.559 173.575 L 173.987 173.012 L 174.306 172.462 L 174.516 171.874 L 174.68 171.124 L 174.786 170.275 L 174.824 169.392 L 174.792 168.554 L 174.693 167.809 L 174.517 167.141 L 174.258 166.536 L 173.908 165.978 L 173.458 165.453 L 172.902 164.946 L 172.232 164.443 L 170.908 163.526 L 128.475 163.439 L 123.821 163.431 L 123.821 143.99 L 127.52 143.991 L 169.959 143.991 L 171.334 143.264 L 171.945 142.886 L 172.592 142.395 L 173.199 141.855 L 173.687 141.328 L 174.227 140.597 L 174.399 140.266 L 174.52 139.908 L 174.597 139.487 L 174.641 138.966 L 174.665 137.479 L 174.641 135.995 L 174.597 135.474 L 174.52 135.051 L 174.4 134.69 L 174.228 134.355 L 173.694 133.618 L 173.215 133.092 L 172.63 132.562 L 172.012 132.09 L 171.437 131.738 L 170.926 131.521 L 170.017 131.358 L 168.198 131.242 L 164.961 131.165 L 152.189 131.1 L 127.621 131.103 L 123.821 131.105 L 123.821 65.406 L 125.832 65.492 L 128.44 65.524 L 130.974 65.484 L 133.387 65.371 L 135.687 65.184 L 137.882 64.918 L 139.979 64.572 L 141.987 64.142 L 143.913 63.625 L 145.765 63.019 L 147.551 62.322 L 149.279 61.529 L 150.956 60.639 L 152.59 59.649 L 154.19 58.555 L 155.762 57.355 L 157.315 56.047 L 158.856 54.627 L 160.017 53.465 L 161.105 52.273 L 162.123 51.042 L 163.078 49.757 L 163.974 48.408 L 164.818 46.983 L 165.613 45.47 L 166.366 43.856 L 167.082 42.131 L 167.765 40.281 L 168.422 38.296 L 169.056 36.164 L 169.674 33.872 L 170.281 31.408 L 171.482 25.92 L 171.874 24.068 L 172.234 22.558 L 172.584 21.334 L 172.946 20.343 L 173.345 19.529 L 173.802 18.839 L 174.342 18.217 L 174.986 17.61 L 175.707 17.074 L 176.521 16.641 L 177.404 16.316 L 178.337 16.101 L 179.298 16 L 180.264 16.017 L 181.215 16.156 L 182.129 16.419 L 191.817 19.936 L 199.839 22.876 L 202.433 23.885 L 204.308 24.69 L 205.633 25.371 L 206.577 26.006 L 207.309 26.674 L 207.998 27.452 L 208.656 28.284 L 209.199 29.088 L 209.634 29.886 L 209.97 30.699 L 210.213 31.552 L 210.373 32.465 L 210.456 33.462 L 210.47 34.564 L 210.337 37.096 L 210.217 38.266 L 210.079 39.17 L 209.775 40.977 L 209.334 44.107 L 207.858 55.687 L 206.786 64.263 L 206.126 69.987 L 205.682 75.074 L 205.541 77.404 L 205.454 79.606 L 205.422 81.69 L 205.445 83.666 L 205.524 85.544 L 205.658 87.335 L 205.848 89.049 L 206.094 90.697 L 206.397 92.287 L 206.756 93.832 L 207.172 95.341 L 207.645 96.824 L 208.647 99.551 L 209.177 100.82 L 209.737 102.043 L 210.336 103.232 L 210.981 104.397 L 211.682 105.553 L 212.446 106.71 L 213.282 107.88 L 214.198 109.077 L 216.303 111.595 L 218.827 114.36 L 221.836 117.468 L 224.412 120.091 L 226.405 122.187 L 227.901 123.878 L 228.987 125.288 L 229.403 125.927 L 229.748 126.542 L 230.033 127.149 L 230.269 127.763 L 230.637 129.075 L 230.938 130.602 L 231.112 131.699 L 231.221 132.704 L 231.261 133.682 L 231.228 134.694 L 231.117 135.803 L 230.924 137.072 L 230.275 140.338 L 228.832 147.485 L 227.704 153.044 L 226.29 159.873 L 224.833 167.02 L 223.706 172.261 L 218.333 196.719 L 216.585 204.819 L 215.184 211.331 L 213.559 218.795 L 213.065 220.877 L 212.495 222.771 L 211.828 224.512 L 211.044 226.137 L 210.126 227.681 L 209.053 229.18 L 207.807 230.67 L 206.367 232.187 L 204.949 233.52 L 203.495 234.711 L 201.988 235.77 L 200.412 236.706 L 198.75 237.528 L 196.987 238.245 L 195.105 238.866 L 193.088 239.399 L 192.059 239.559 L 190.124 239.684 L 186.738 239.78 L 181.353 239.852 L 162.409 239.944 Z"/>
</svg>
