<svg xmlns="http://www.w3.org/2000/svg" width="64" height="64" viewBox="0 0 64 64">
  <path fill="#ffffff" d="M 32 2 A 2 2 0 0 0 30 4 L 30 16 A 2 2 0 0 0 32 18 A 2 2 0 0 0 34 16 L 34 4 A 2 2 0 0 0 32 2 z M 32 18 C 28.561207 18 25.406938 19.254665 22.964844 21.326172 A 2 2 0 0 0 22.414062 19.585938 L 13.414062 10.585938 A 2 2 0 0 0 12 10 A 2 2 0 0 0 10.585938 10.585938 A 2 2 0 0 0 10.585938 13.414062 L 19.585938 22.414062 A 2 2 0 0 0 21.355469 22.931641 C 19.266839 25.378361 18 28.54536 18 32 C 18 35.455626 19.267725 38.623307 21.357422 41.070312 A 2 2 0 0 0 21 41 A 2 2 0 0 0 19.585938 41.585938 L 10.585938 50.585938 A 2 2 0 0 0 10.585938 53.414062 A 2 2 0 0 0 13.414062 53.414062 L 22.414062 44.414062 A 2 2 0 0 0 22.964844 42.673828 C 25.406938 44.745335 28.561207 46 32 46 C 35.45464 46 38.621639 44.733161 41.068359 42.644531 A 2 2 0 0 0 41.585938 44.414062 L 50.585938 53.414062 A 2 2 0 0 0 53.414062 53.414062 A 2 2 0 0 0 53.414062 50.585938 L 44.414062 41.585938 A 2 2 0 0 0 42.644531 41.068359 C 44.733161 38.621639 46 35.45464 46 32 C 46 28.54536 44.733161 25.378361 42.644531 22.931641 A 2 2 0 0 0 44.414062 22.414062 L 53.414062 13.414062 A 2 2 0 0 0 53.414062 10.585938 A 2 2 0 0 0 50.585938 10.585938 L 41.585938 19.585938 A 2 2 0 0 0 41.068359 21.355469 C 38.621639 19.266839 35.45464 18 32 18 z M 46 32 A 2 2 0 0 0 48 34 L 60 34 A 2 2 0 0 0 62 32 A 2 2 0 0 0 60 30 L 48 30 A 2 2 0 0 0 46 32 z M 32 46 A 2 2 0 0 0 30 48 L 30 60 A 2 2 0 0 0 32 62 A 2 2 0 0 0 34 60 L 34 48 A 2 2 0 0 0 32 46 z M 18 32 A 2 2 0 0 0 16 30 L 4 30 A 2 2 0 0 0 2 32 A 2 2 0 0 0 4 34 L 16 34 A 2 2 0 0 0 18 32 z M 32 22 C 37.546525 22 42 26.453475 42 32 C 42 37.546525 37.546525 42 32 42 C 26.453475 42 22 37.546525 22 32 C 22 26.453475 26.453475 22 32 22 z M 28 27 C 26.366839 27 25 28.366839 25 30 C 25 31.633161 26.366839 33 28 33 C 29.633161 33 31 31.633161 31 30 C 31 28.366839 29.633161 27 28 27 z M 28 29 C 28.528594 29 29 29.471406 29 30 C 29 30.528594 28.528594 31 28 31 C 27.471406 31 27 30.528594 27 30 C 27 29.471406 27.471406 29 28 29 z M 36 33 C 34.366839 33 33 34.366839 33 36 C 33 37.633161 34.366839 39 36 39 C 37.633161 39 39 37.633161 39 36 C 39 34.366839 37.633161 33 36 33 z M 36 35 C 36.528594 35 37 35.471406 37 36 C 37 36.528594 36.528594 37 36 37 C 35.471406 37 35 36.528594 35 36 C 35 35.471406 35.471406 35 36 35 z" />
</svg>
